# xmcd
#
# Track frame offsets:
#  150
#  11283
#  24466
#  34576
#  46848
#  57670
#  67266
#  82005
#  91785
#  108692
#  121239
#  133307
#  147128
#  156044
#  166845
#  179869
#
# Disc length: 2571 seconds
#
# Revision: 0
# Processed by: cddbd v1.5.1PL0 Copyright (c) Steve Scherf et al.
# Submitted via: Collectorz.com Music Collector 6.9
#
DISCID=dc0a0910
DTITLE=Various Artist - Walk On By
DYEAR=2004
DGENRE=Country
TTITLE0=Kitty Wells - I've Kissed You One Last Time
TTITLE1=Townes Van Zandt - Come Tomorrow
TTITLE2=Townes Van Dyke - Walk On By
TTITLE3=Tanya Tucker - Love Knows We Tried
TTITLE4=Kenny Rogers and The First Edition - She Even Woke Me Up To Say Goodbye
TTITLE5=Jeannie C  Riley - The Girl Most Likely
TTITLE6=Patti Page - I Went To Your Wedding
TTITLE7=Anne Murray - It's All Over
TTITLE8=Conway Twitty - Don't Cry Joni
TTITLE9=Jerry Lee Lewis - Love Made A Fool of Me
TTITLE10=Waylon Jennings - Don't Think Twice, It's Alright
TTITLE11=Patsy Cline - A Church, A Courtroom And Then Goodbye
TTITLE12=Johnny Cash - Life Goes On
TTITLE13=Carl Belew - Am I That Easy To Forget
TTITLE14=Eddy Arnold - Then I Turned And Walked Slowly Away
TTITLE15=Lynn Anderson - Rose Garden
EXTD=
EXTT0=
EXTT1=
EXTT2=
EXTT3=
EXTT4=
EXTT5=
EXTT6=
EXTT7=
EXTT8=
EXTT9=
EXTT10=
EXTT11=
EXTT12=
EXTT13=
EXTT14=
EXTT15=
PLAYORDER=
